HIERARCHY
ROOT Root
{
  OFFSET 0.0 0.0 0.0
  CHANNELS 6 Xposition Yposition Zposition Zrotation Yrotation Xrotation
  JOINT Hips
  {
    OFFSET 0.0 100.0 0.0
    CHANNELS 6 Xposition Yposition Zposition Zrotation Yrotation Xrotation
    JOINT Spine1
    {
      OFFSET -0.013727 5.003763 -0.053727
      CHANNELS 3 Zrotation Yrotation Xrotation
      JOINT Spine2
      {
        OFFSET -0.0 7.125301 -0.029825
        CHANNELS 3 Zrotation Yrotation Xrotation
        JOINT Chest
        {
          OFFSET -1e-06 7.550063 -0.815971
          CHANNELS 3 Zrotation Yrotation Xrotation
          JOINT Neck1
          {
            OFFSET -0.181677 26.311295 -0.553348
            CHANNELS 3 Zrotation Yrotation Xrotation
            JOINT Neck2
            {
              OFFSET -3e-06 7.709397 2.302585
              CHANNELS 3 Zrotation Yrotation Xrotation
              JOINT Head
              {
                OFFSET -5e-06 6.128916 1.953709
                CHANNELS 3 Zrotation Yrotation Xrotation
                JOINT HeadEnd
                {
                  OFFSET 0.003598 16.065403 -1.835379
                  CHANNELS 3 Zrotation Yrotation Xrotation
                }
                JOINT Jaw
                {
                  OFFSET 0.002637 0.475592 3.094941
                  CHANNELS 3 Zrotation Yrotation Xrotation
                }
                JOINT LeftEye
                {
                  OFFSET 3.206381 5.380205 7.586883
                  CHANNELS 3 Zrotation Yrotation Xrotation
                }
                JOINT RightEye
                {
                  OFFSET -3.22244 5.361869 7.558234
                  CHANNELS 3 Zrotation Yrotation Xrotation
                }
              }
            }
          }
          JOINT LeftShoulder
          {
            OFFSET 1.621652 23.237164 5.113413
            CHANNELS 3 Zrotation Yrotation Xrotation
            JOINT LeftArm
            {
              OFFSET 14.919846 2e-06 -5.502326
              CHANNELS 3 Zrotation Yrotation Xrotation
              JOINT LeftForeArm
              {
                OFFSET 28.739307 0.0 -0.002588
                CHANNELS 3 Zrotation Yrotation Xrotation
                JOINT LeftHand
                {
                  OFFSET 27.093981 -1e-06 0.002609
                  CHANNELS 3 Zrotation Yrotation Xrotation
                  JOINT LeftHandThumb1
                  {
                    OFFSET 2.276482 -1.392045 3.191413
                    CHANNELS 3 Zrotation Yrotation Xrotation
                    JOINT LeftHandThumb2
                    {
                      OFFSET 4.012836 -1.828127 1.641654
                      CHANNELS 3 Zrotation Yrotation Xrotation
                      JOINT LeftHandThumb3
                      {
                        OFFSET 2.798515 0.0 -3e-06
                        CHANNELS 3 Zrotation Yrotation Xrotation
                        JOINT LeftHandThumbEnd
                        {
                          OFFSET 3.180793 -4e-06 4e-06
                          CHANNELS 3 Zrotation Yrotation Xrotation
                        }
                      }
                    }
                  }
                  JOINT LeftHandIndex1
                  {
                    OFFSET 3.247555 -0.531998 2.296169
                    CHANNELS 3 Zrotation Yrotation Xrotation
                    JOINT LeftHandIndex2
                    {
                      OFFSET 6.364578 0.01206 0.1786
                      CHANNELS 3 Zrotation Yrotation Xrotation
                      JOINT LeftHandIndex3
                      {
                        OFFSET 3.662364 0.0 0.0
                        CHANNELS 3 Zrotation Yrotation Xrotation
                        JOINT LeftHandIndex4
                        {
                          OFFSET 2.329242 4e-06 4e-06
                          CHANNELS 3 Zrotation Yrotation Xrotation
                          JOINT LeftHandIndexEnd
                          {
                            OFFSET 2.759615 -0.180537 -0.113024
                            CHANNELS 3 Zrotation Yrotation Xrotation
                          }
                        }
                      }
                    }
                  }
                  JOINT LeftHandMiddle1
                  {
                    OFFSET 3.163495 0.240981 1.000332
                    CHANNELS 3 Zrotation Yrotation Xrotation
                    JOINT LeftHandMiddle2
                    {
                      OFFSET 6.19078 -0.259278 -1.002548
                      CHANNELS 3 Zrotation Yrotation Xrotation
                      JOINT LeftHandMiddle3
                      {
                        OFFSET 4.35652 -4e-06 -1e-06
                        CHANNELS 3 Zrotation Yrotation Xrotation
                        JOINT LeftHandMiddle4
                        {
                          OFFSET 2.996877 -8e-06 0.0
                          CHANNELS 3 Zrotation Yrotation Xrotation
                          JOINT LeftHandMiddleEnd
                          {
                            OFFSET 2.304287 -0.294569 -0.031741
                            CHANNELS 3 Zrotation Yrotation Xrotation
                          }
                        }
                      }
                    }
                  }
                  JOINT LeftHandRing1
                  {
                    OFFSET 2.882643 -0.053652 -0.322543
                    CHANNELS 3 Zrotation Yrotation Xrotation
                    JOINT LeftHandRing2
                    {
                      OFFSET 5.854541 -0.486202 -1.373841
                      CHANNELS 3 Zrotation Yrotation Xrotation
                      JOINT LeftHandRing3
                      {
                        OFFSET 4.350578 0.0 3e-06
                        CHANNELS 3 Zrotation Yrotation Xrotation
                        JOINT LeftHandRing4
                        {
                          OFFSET 2.651321 7e-06 2e-06
                          CHANNELS 3 Zrotation Yrotation Xrotation
                          JOINT LeftHandRingEnd
                          {
                            OFFSET 1.936105 0.077687 -7.1e-05
                            CHANNELS 3 Zrotation Yrotation Xrotation
                          }
                        }
                      }
                    }
                  }
                  JOINT LeftHandPinky1
                  {
                    OFFSET 2.8655 -0.310005 -1.600378
                    CHANNELS 3 Zrotation Yrotation Xrotation
                    JOINT LeftHandPinky2
                    {
                      OFFSET 5.087849 -1.331141 -1.77123
                      CHANNELS 3 Zrotation Yrotation Xrotation
                      JOINT LeftHandPinky3
                      {
                        OFFSET 3.070974 4e-06 0.0
                        CHANNELS 3 Zrotation Yrotation Xrotation
                        JOINT LeftHandPinky4
                        {
                          OFFSET 1.549672 0.0 1e-06
                          CHANNELS 3 Zrotation Yrotation Xrotation
                          JOINT LeftHandPinkyEnd
                          {
                            OFFSET 1.944893 -0.157802 0.057219
                            CHANNELS 3 Zrotation Yrotation Xrotation
                          }
                        }
                      }
                    }
                  }
                }
              }
            }
          }
          JOINT RightShoulder
          {
            OFFSET -1.380118 23.180309 5.214158
            CHANNELS 3 Zrotation Yrotation Xrotation
            JOINT RightArm
            {
              OFFSET -15.037196 1.2e-05 -5.545604
              CHANNELS 3 Zrotation Yrotation Xrotation
              JOINT RightForeArm
              {
                OFFSET -28.736639 2e-06 -0.002597
                CHANNELS 3 Zrotation Yrotation Xrotation
                JOINT RightHand
                {
                  OFFSET -27.133619 -0.0 0.002613
                  CHANNELS 3 Zrotation Yrotation Xrotation
                  JOINT RightHandThumb1
                  {
                    OFFSET -2.274032 -1.383988 3.163127
                    CHANNELS 3 Zrotation Yrotation Xrotation
                    JOINT RightHandThumb2
                    {
                      OFFSET -4.011429 -1.827466 1.640914
                      CHANNELS 3 Zrotation Yrotation Xrotation
                      JOINT RightHandThumb3
                      {
                        OFFSET -2.794935 -4e-06 -3e-06
                        CHANNELS 3 Zrotation Yrotation Xrotation
                        JOINT RightHandThumbEnd
                        {
                          OFFSET -3.183852 4e-06 1e-06
                          CHANNELS 3 Zrotation Yrotation Xrotation
                        }
                      }
                    }
                  }
                  JOINT RightHandIndex1
                  {
                    OFFSET -3.253266 -0.520057 2.282866
                    CHANNELS 3 Zrotation Yrotation Xrotation
                    JOINT RightHandIndex2
                    {
                      OFFSET -6.341917 0.012471 0.178266
                      CHANNELS 3 Zrotation Yrotation Xrotation
                      JOINT RightHandIndex3
                      {
                        OFFSET -3.654871 -8e-06 -0.0
                        CHANNELS 3 Zrotation Yrotation Xrotation
                        JOINT RightHandIndex4
                        {
                          OFFSET -2.327586 0.0 1e-06
                          CHANNELS 3 Zrotation Yrotation Xrotation
                          JOINT RightHandIndexEnd
                          {
                            OFFSET -2.76179 -0.180656 -0.113078
                            CHANNELS 3 Zrotation Yrotation Xrotation
                          }
                        }
                      }
                    }
                  }
                  JOINT RightHandMiddle1
                  {
                    OFFSET -3.168106 0.246593 1.00103
                    CHANNELS 3 Zrotation Yrotation Xrotation
                    JOINT RightHandMiddle2
                    {
                      OFFSET -6.180828 -0.258836 -1.000895
                      CHANNELS 3 Zrotation Yrotation Xrotation
                      JOINT RightHandMiddle3
                      {
                        OFFSET -4.348901 0.0 -0.0
                        CHANNELS 3 Zrotation Yrotation Xrotation
                        JOINT RightHandMiddle4
                        {
                          OFFSET -3.00024 -4e-06 -2e-06
                          CHANNELS 3 Zrotation Yrotation Xrotation
                          JOINT RightHandMiddleEnd
                          {
                            OFFSET -2.30252 -0.29437 -0.031706
                            CHANNELS 3 Zrotation Yrotation Xrotation
                          }
                        }
                      }
                    }
                  }
                  JOINT RightHandRing1
                  {
                    OFFSET -2.88569 -0.067952 -0.308858
                    CHANNELS 3 Zrotation Yrotation Xrotation
                    JOINT RightHandRing2
                    {
                      OFFSET -5.854198 -0.48613 -1.373731
                      CHANNELS 3 Zrotation Yrotation Xrotation
                      JOINT RightHandRing3
                      {
                        OFFSET -4.33881 -4e-06 -0.0
                        CHANNELS 3 Zrotation Yrotation Xrotation
                        JOINT RightHandRing4
                        {
                          OFFSET -2.654903 -4e-06 4e-06
                          CHANNELS 3 Zrotation Yrotation Xrotation
                          JOINT RightHandRingEnd
                          {
                            OFFSET -1.933568 0.077527 -5.2e-05
                            CHANNELS 3 Zrotation Yrotation Xrotation
                          }
                        }
                      }
                    }
                  }
                  JOINT RightHandPinky1
                  {
                    OFFSET -2.866425 -0.342796 -1.584145
                    CHANNELS 3 Zrotation Yrotation Xrotation
                    JOINT RightHandPinky2
                    {
                      OFFSET -5.091371 -1.332055 -1.772385
                      CHANNELS 3 Zrotation Yrotation Xrotation
                      JOINT RightHandPinky3
                      {
                        OFFSET -3.062664 -4e-06 1e-06
                        CHANNELS 3 Zrotation Yrotation Xrotation
                        JOINT RightHandPinky4
                        {
                          OFFSET -1.546529 4e-06 -2e-06
                          CHANNELS 3 Zrotation Yrotation Xrotation
                          JOINT RightHandPinkyEnd
                          {
                            OFFSET -1.945119 -0.157718 0.057211
                            CHANNELS 3 Zrotation Yrotation Xrotation
                          }
                        }
                      }
                    }
                  }
                }
              }
            }
          }
        }
      }
    }
    JOINT LeftLeg
    {
      OFFSET 10.043214 -8.434526 2.595655
      CHANNELS 3 Zrotation Yrotation Xrotation
      JOINT LeftShin
      {
        OFFSET -1e-06 -43.221752 -0.802913
        CHANNELS 3 Zrotation Yrotation Xrotation
        JOINT LeftFoot
        {
          OFFSET 1e-06 -42.155094 -3.481523
          CHANNELS 3 Zrotation Yrotation Xrotation
          JOINT LeftToeBase
          {
            OFFSET 0.0 -5.059472 13.231529
            CHANNELS 3 Zrotation Yrotation Xrotation
            JOINT LeftToeEnd
            {
              OFFSET -0.009607 -1.647619 6.513017
              CHANNELS 3 Zrotation Yrotation Xrotation
            }
          }
        }
      }
    }
    JOINT RightLeg
    {
      OFFSET -10.047278 -8.29526 2.620317
      CHANNELS 3 Zrotation Yrotation Xrotation
      JOINT RightShin
      {
        OFFSET 1e-06 -43.362206 -0.805556
        CHANNELS 3 Zrotation Yrotation Xrotation
        JOINT RightFoot
        {
          OFFSET 2e-06 -42.117393 -3.478398
          CHANNELS 3 Zrotation Yrotation Xrotation
          JOINT RightToeBase
          {
            OFFSET -0.0 -5.079609 13.284196
            CHANNELS 3 Zrotation Yrotation Xrotation
            JOINT RightToeEnd
            {
              OFFSET 0.009532 -1.634378 6.460591
              CHANNELS 3 Zrotation Yrotation Xrotation
            }
          }
        }
      }
    }
  }
}
MOTION
Frames: 4
Frame Time: 0.03333333333333333
0.0 0.0 0.0 0.0 -0.0 0.0 -0.278248 95.663216 -3.99031 4.651521 1.11424 -0.72643 -1.550736 -0.053548 -0.417384 -1.039988 0.894392 -5.137342 -2.40974 -0.690612 13.08262 1.452446 2.422872 0.086651 -0.343678 1.654323 -3.74204 0.35324 1.852138 -8.854963 7.7e-05 -2.2e-05 6e-06 0.029937 0.016247 0.03163 0.687708 -3.736938 -10.821815 -0.638737 3.776755 -10.798927 -10.667774 -4.216107 14.671829 -56.056763 0.410321 12.652103 179.455536 -81.78669 -179.828827 11.168515 -2.225591 -5.485858 -5.882103 9.861281 0.70259 -10.936865 -0.360575 7.156203 -1e-06 8.774821 -2e-06 -15.045481 18.527899 6.934027 -1.844032 2.498503 -2.507277 -10.163594 4.678941 4.621107 -20.976013 -3e-06 3e-06 -21.226274 2.451696 -3.593997 -0.0 -7e-06 1e-06 -1.362681 2.240797 -0.746324 -21.334904 0.584908 3.008323 -13.821206 -4e-06 2e-06 -23.887156 -0.249079 -0.839481 -60.173729 2.571611 -1.229964 -0.294025 1.679687 0.833255 -14.218201 0.093215 1.30058 -34.212032 -0.287564 0.967171 -20.033201 0.964537 1.212843 -1e-06 0.0 -0.0 -3.440387 0.788232 0.501657 -15.928179 -3.167309 2.999707 -6.338823 -2e-06 1e-06 -18.12343 3.648181 -4.905668 -7e-06 -1e-06 -2e-06 16.600389 7.160207 17.674263 59.654518 0.980265 9.858087 174.330841 83.092491 174.330765 -0.50905 1.856136 13.746482 2.243541 -5.255036 -3.180157 14.282887 -0.826595 6.952503 -1e-06 -12.690601 2e-06 15.818247 -18.0991 3.036619 1.665666 -1.955921 -2.878299 4.727799 -4.170587 4.993924 11.020524 3e-06 -2e-06 12.10905 -3.735714 -2.866783 1e-06 1e-06 -0.0 1.291985 -1.928549 -1.49809 14.800127 0.567468 3.865608 14.242569 -1.341735 -6.660656 19.631968 0.143927 -0.648244 50.204002 -0.830942 -6.331048 0.353029 -1.511151 -0.03194 20.222788 3.68431 2.316631 18.78727 6e-06 1e-06 10.751625 -0.479869 1.397907 -0.0 -0.0 -0.0 3.273808 0.305948 -0.580111 21.486813 11.830373 2.266133 8.162927 1e-06 -0.0 18.39908 -3.798984 -4.940574 4e-06 -0.0 -1e-06 -7.207155 5.815108 -13.18132 0.050757 0.228745 34.650909 1.469028 -2.18647 -17.283752 1.629183 -1.97438 -1.163288 -0.0 0.0 2e-06 -5.417813 -5.524273 -6.381779 0.003934 -0.235371 74.391136 -6.087667 -10.766888 10.141467 -1.512117 0.989352 -4.061341 0.0 -0.0 -1e-06 
0.0 0.0 0.0 0.0 -0.0 0.0 -0.413745 94.454124 -0.568491 4.703897 2.835188 -1.05617 -2.135024 -0.429632 0.168792 -1.122524 -0.091188 -4.749341 -2.97857 -1.947629 13.848871 2.747269 2.005316 -0.229259 -0.439864 1.929256 -3.73933 0.330825 2.257133 -11.231588 7.7e-05 -2.2e-05 6e-06 0.009069 -0.04736 0.022751 0.730657 -3.787736 -10.821279 -0.722794 3.705055 -10.798524 -8.837754 -6.32079 14.271024 -56.192238 -9.687048 12.439404 -178.231155 -81.752335 177.554031 12.457696 -2.687319 -3.953233 -5.882106 9.861286 0.702589 -10.936872 -0.360575 7.156209 0.0 8.774827 -2e-06 -15.554883 18.036886 6.327289 -1.844032 2.498505 -2.507279 -10.163601 4.678946 4.621109 -20.976023 -4e-06 1e-06 -21.226286 2.451696 -3.594002 1e-06 -6e-06 -1e-06 -1.362682 2.240798 -0.746324 -21.334915 0.584909 3.008324 -13.821216 -3e-06 1e-06 -23.887175 -0.249079 -0.839483 -60.091084 2.446037 -1.324653 -0.294024 1.679688 0.833256 -14.218208 0.093215 1.300581 -34.212048 -0.287564 0.96717 -20.033215 0.964536 1.212844 -0.0 -0.0 -0.0 -3.44039 0.788233 0.501655 -15.928185 -3.16731 2.999709 -6.338822 -0.0 1e-06 -18.123447 3.648183 -4.905673 -4e-06 -0.0 -2e-06 18.19451 4.942966 18.287247 58.907078 -4.010302 7.296255 175.566971 85.839294 175.973984 -2.032291 4.331397 14.667661 2.243542 -5.255037 -3.180157 14.282889 -0.826595 6.952503 -0.0 -12.690606 1e-06 15.755569 -17.996559 2.908041 1.665666 -1.955922 -2.878298 4.727798 -4.170588 4.993925 11.020527 0.0 -1e-06 12.109054 -3.735716 -2.866785 1e-06 1e-06 0.0 1.291987 -1.928549 -1.49809 14.800129 0.567466 3.865607 14.242571 -1.341736 -6.660659 19.631968 0.143925 -0.648246 49.709549 -0.642205 -6.4202 0.353028 -1.511151 -0.031939 20.222788 3.684309 2.31663 18.787273 3e-06 -2e-06 10.751627 -0.47987 1.397905 0.0 1e-06 0.0 3.273807 0.305946 -0.580111 21.486813 11.830376 2.266133 8.16293 0.0 -1e-06 18.399086 -3.798987 -4.940578 4e-06 -1e-06 -1e-06 -6.631966 6.305858 -11.882509 -0.006137 0.043442 37.958294 1.147532 -3.960762 -21.014849 1.662895 -2.008535 -0.451715 -0.0 -0.0 2e-06 -4.702707 -6.370919 -14.842031 -0.112293 -0.688225 79.620529 -5.132275 -11.055532 5.920192 -1.506305 0.926379 -4.053213 0.0 -0.0 -1e-06 
0.0 0.0 0.0 0.0 -0.0 0.0 -0.53122 94.606293 6.387861 3.218246 4.3277 -1.114612 -1.886825 -0.881929 0.439969 -0.945089 -1.316306 -4.536139 -2.657905 -3.477802 14.040634 2.956634 1.882258 -0.191138 -0.195125 2.476826 -3.723891 -0.150676 3.148063 -11.390726 7.7e-05 -2.3e-05 6e-06 -0.007408 -0.131018 0.007353 0.718081 -3.852271 -10.795341 -0.74149 3.603636 -10.776026 -6.845335 -8.576893 14.021156 -57.533825 -17.002441 10.111982 -176.084213 -80.923271 175.292313 12.522172 -4.556423 -2.221352 -5.88211 9.86129 0.702588 -10.936875 -0.360576 7.156208 -0.0 8.77483 -2e-06 -15.888549 18.232639 6.163955 -1.844035 2.498506 -2.507279 -10.163606 4.678946 4.621109 -20.976032 -3e-06 -0.0 -21.226295 2.451698 -3.594004 0.0 -6e-06 -1e-06 -1.362682 2.2408 -0.746325 -21.334925 0.584909 3.008322 -13.821218 -2e-06 0.0 -23.887184 -0.24908 -0.839485 -60.393291 2.369261 -1.51449 -0.294025 1.679687 0.833257 -14.218215 0.093215 1.30058 -34.212067 -0.287565 0.967169 -20.033226 0.964535 1.212843 -0.0 -1e-06 -1e-06 -3.440391 0.788233 0.501656 -15.928194 -3.167311 2.999707 -6.338828 -1e-06 1e-06 -18.123457 3.648183 -4.905675 -3e-06 0.0 -1e-06 18.866266 2.744698 18.71373 59.896336 -9.216066 3.594804 173.429977 86.498314 173.33667 -2.844753 6.090823 14.405028 2.243543 -5.25504 -3.180159 14.282891 -0.826596 6.952507 0.0 -12.690607 -0.0 15.617231 -17.812342 2.853449 1.665667 -1.955922 -2.878301 4.7278 -4.170591 4.993927 11.020526 1e-06 -2e-06 12.109055 -3.735719 -2.866787 -2e-06 -1e-06 -0.0 1.291985 -1.92855 -1.498089 14.800131 0.567465 3.865608 14.242575 -1.341738 -6.660663 19.631971 0.143925 -0.648248 49.626446 -0.397026 -6.1898 0.353028 -1.51115 -0.03194 20.222792 3.684308 2.316629 18.787277 2e-06 -2e-06 10.751631 -0.479871 1.397906 0.0 1e-06 0.0 3.273807 0.305946 -0.580109 21.486813 11.830374 2.266134 8.162927 1e-06 -1e-06 18.399086 -3.79899 -4.940578 3e-06 -0.0 -1e-06 -3.719081 7.013749 -5.578634 -0.083124 -0.291452 35.18576 0.364727 -5.743808 -22.485636 1.691076 -1.994824 -1.445252 0.0 0.0 2e-06 -2.028155 -6.602484 -22.187113 -0.149511 -0.796035 78.271011 -2.950715 -12.251588 2.519231 -1.435148 0.869434 -3.787663 0.0 -0.0 -1e-06 
0.0 0.0 0.0 0.0 -0.0 0.0 -0.648066 95.998726 14.499159 1.262562 4.59094 -0.614952 -1.302616 -1.191864 0.123396 -0.779676 -2.434612 -4.617781 -1.625263 -4.918103 13.657179 2.431457 2.137528 0.288138 0.144794 3.264756 -3.710574 -0.844822 4.437756 -10.054641 7.7e-05 -2.3e-05 6e-06 -0.010326 -0.215583 -0.027611 0.690915 -3.926693 -10.793723 -0.71641 3.509951 -10.768005 -5.57241 -10.29466 13.337616 -59.089832 -20.195036 8.59931 -176.09346 -78.739929 175.511169 12.943418 -5.685839 -2.66516 -5.882107 9.861287 0.70259 -10.936872 -0.360576 7.156207 -1e-06 8.774825 -1e-06 -15.81271 18.507486 6.351558 -1.844033 2.498505 -2.507278 -10.163603 4.678944 4.621109 -20.976027 -2e-06 3e-06 -21.226288 2.451698 -3.594001 0.0 -6e-06 0.0 -1.362682 2.240799 -0.746324 -21.334917 0.584909 3.008324 -13.821217 -2e-06 3e-06 -23.887175 -0.249078 -0.839484 -60.269352 2.390142 -1.678249 -0.294025 1.679689 0.833255 -14.218211 0.093215 1.300581 -34.212055 -0.287564 0.967172 -20.033215 0.964536 1.212844 -0.0 0.0 0.0 -3.440388 0.788232 0.501656 -15.928189 -3.16731 2.999707 -6.338828 -1e-06 1e-06 -18.123453 3.648183 -4.905673 -4e-06 -0.0 -2e-06 19.410004 0.979488 18.547045 60.881905 -14.625353 -0.706534 167.452469 85.633324 167.045334 -3.379885 6.175682 13.056616 2.243541 -5.255035 -3.180157 14.28289 -0.826596 6.952499 -1e-06 -12.690606 0.0 15.495458 -17.703508 2.794245 1.665666 -1.955921 -2.878298 4.727797 -4.170586 4.993924 11.020524 4e-06 -0.0 12.10905 -3.735716 -2.866783 1e-06 -2e-06 1e-06 1.291986 -1.928548 -1.498091 14.800127 0.567468 3.865608 14.242571 -1.341736 -6.660658 19.631969 0.143928 -0.648242 49.739998 -0.383476 -6.0785 0.35303 -1.511151 -0.03194 20.222788 3.684307 2.316627 18.78727 8e-06 -2e-06 10.751625 -0.479868 1.397905 -1e-06 -0.0 0.0 3.273806 0.305948 -0.58011 21.486809 11.830373 2.266133 8.162928 3e-06 -1e-06 18.39908 -3.798984 -4.940574 3e-06 -1e-06 -1e-06 -0.469963 7.160158 1.60952 0.050522 -0.498857 29.081478 -0.946191 -6.390306 -18.694111 1.772881 -1.908698 -5.352984 0.0 -0.0 2e-06 0.939744 -5.427269 -27.474463 -0.239925 -0.711112 70.033478 -0.436358 -14.025805 -0.23167 -1.450207 0.928054 -3.498635 0.0 0.0 -4e-06 
